<?xml version="1.0" encoding="UTF-8"?>
<svg id="Layer_2" data-name="Layer 2" xmlns="http://www.w3.org/2000/svg" viewBox="0 0 26.57 24.57">
  <defs>
    <style>
      .cls-1 {
        fill: #fff;
        fill-rule: evenodd;
      }
    </style>
  </defs>
  <g id="Layer_1-2" data-name="Layer 1">
    <path class="cls-1" d="m25.23,17.42c-.66-.32-3.87-1.9-4.47-2.11-.6-.22-1.04-.32-1.47.32-.44.65-1.7,2.11-2.07,2.53-.39.44-.76.49-1.42.16-.65-.32-2.76-1-5.26-3.22-1.93-1.71-3.26-3.83-3.63-4.48-.37-.65-.04-1,.29-1.32.3-.3.65-.76.99-1.14.09-.11.16-.21.24-.31.15-.24.26-.46.41-.77.22-.44.11-.81-.05-1.14-.16-.32-1.47-3.52-2.02-4.82C6.22-.16,5.67.06,5.28.06s-.81-.06-1.25-.06-1.15.16-1.75.81C1.68,1.46,0,3.03,0,6.23c0,.75.14,1.5.34,2.21.66,2.28,2.08,4.17,2.33,4.49.32.42,4.52,7.19,11.16,9.8,6.65,2.58,6.65,1.72,7.85,1.61,1.2-.1,3.87-1.56,4.41-3.08.55-1.51.55-2.81.39-3.08-.16-.26-.6-.42-1.25-.75Z"/>
  </g>
</svg>