<?xml version="1.0" encoding="UTF-8"?>
<svg id="Layer_2" data-name="Layer 2" xmlns="http://www.w3.org/2000/svg" viewBox="0 0 35.39 35.38">
  <defs>
    <style>
      .cls-1 {
        fill: #fff;
      }
    </style>
  </defs>
  <g id="Layer_1-2" data-name="Layer 1">
    <path class="cls-1" d="m17.7,0C7.93,0,0,7.92,0,17.69s7.93,17.69,17.7,17.69,17.69-7.92,17.69-17.69S27.47,0,17.7,0Zm9.85,11.64c0,.05,0,.18-.1.31-.45.61-.94,1.15-1.55,1.61-.08.06-.23.13-.23.25,0,3.19-.81,6.37-3.14,8.68-2.95,2.94-7.39,3.74-11.33,2.65-.76-.21-1.49-.51-2.19-.88-.23-.12-.46-.25-.68-.4-.06-.05-.1-.09-.05-.12.04-.02.08-.02.26,0,1.1.11,2.23-.05,3.28-.42.57-.2,1.8-.6,2.15-1.14,0-.02.02-.02.03-.03-.14-.03-.29-.03-.43-.06-1.07-.3-2.5-.84-3.16-2.64-.04-.11,0-.16.11-.14.88.07,1.2.02,1.5-.05-.17-.03-.35-.09-.51-.16-1.35-.51-2.33-1.82-2.51-3.24-.02-.17-.03-.31-.02-.46,0-.11.05-.14.14-.08.7.36,1.47.44,1.54.43-.18-.14-.34-.28-.49-.43-1.17-1.11-1.62-3.36-.69-4.76.08-.12.13-.12.22-.01,2.14,2.43,4.77,3.57,7.95,4.04.08.02.09,0,.08-.09-.08-.56-.09-1.11.04-1.66.14-.57.42-1.11.79-1.57.36-.45.81-.81,1.31-1.08.51-.26,1.06-.42,1.63-.46.59-.04,1.18.06,1.72.28.41.17.78.4,1.12.69.07.05.14.13.2.2.05.04.1.06.16.04.82-.2,1.58-.49,2.32-.88.03-.02.06-.03.1-.01.04.03.02.07.01.1-.14.43-.37.83-.65,1.18-.19.23-.65.8-.96.85.66-.11,1.34-.28,1.95-.55.08-.04.08-.05.08,0h0Z"/>
  </g>
</svg>