<?xml version="1.0" encoding="UTF-8"?>
<svg id="Layer_2" data-name="Layer 2" xmlns="http://www.w3.org/2000/svg" viewBox="0 0 35.39 35.38">
  <defs>
    <style>
      .cls-1 {
        fill: #fff;
      }
    </style>
  </defs>
  <g id="Layer_1-2" data-name="Layer 1">
    <g>
      <path class="cls-1" d="m18.5,9.05c-4.54,0-8.24,3.69-8.24,8.24,0,1.5.42,2.98,1.2,4.27l.22.35-.83,3.07,3.09-.82.35.2c1.28.77,2.74,1.17,4.21,1.17,4.54,0,8.24-3.7,8.24-8.24s-3.7-8.24-8.24-8.24Zm4.84,11.35c-.31.74-1.07,1.22-1.84,1.37-.74.14-1.35-.1-2.03-.32-.61-.2-1.2-.5-1.75-.83-1.09-.67-2.03-1.57-2.79-2.6-.23-.31-.45-.64-.65-.98-.26-.45-.49-.92-.61-1.42-.05-.21-.08-.43-.08-.64-.01-.77.28-1.54.88-2.03.35-.29.87-.41,1.27-.19.42.24.64.85.84,1.28.16.33.33.77.27,1.14-.06.38-.36.7-.6.97-.16.19-.18.35-.05.56.78,1.3,1.87,2.25,3.29,2.81.19.08.34.06.47-.1.24-.3.49-.89.86-1.05.5-.2,1.04.08,1.46.33.39.23,1.04.52,1.14,1,.06.23.01.48-.08.7Z"/>
      <path class="cls-1" d="m17.7,0C7.92,0,0,7.92,0,17.69s7.92,17.69,17.7,17.69,17.69-7.92,17.69-17.69S27.47,0,17.7,0Zm.8,27.45c-1.68,0-3.34-.43-4.83-1.23l-5.53,1.48,1.47-5.5c-.83-1.51-1.27-3.2-1.27-4.91,0-5.61,4.56-10.16,10.16-10.16s10.16,4.55,10.16,10.16-4.56,10.16-10.16,10.16Z"/>
    </g>
  </g>
</svg>