<?xml version="1.0" encoding="UTF-8"?>
<svg id="Layer_2" data-name="Layer 2" xmlns="http://www.w3.org/2000/svg" viewBox="0 0 35.38 35.38">
  <defs>
    <style>
      .cls-1 {
        fill: #fff;
      }
    </style>
  </defs>
  <g id="Layer_1-2" data-name="Layer 1">
    <g>
      <path class="cls-1" d="m20.77,18.07l-4.87,2.41c-.19.1-.84-.04-.84-.25v-4.95c0-.22.65-.36.85-.25l4.66,2.54c.19.11.4.39.2.5Z"/>
      <path class="cls-1" d="m17.69,0C7.92,0,0,7.92,0,17.69s7.92,17.69,17.69,17.69,17.69-7.92,17.69-17.69S27.46,0,17.69,0Zm9.47,20.22c0,2.34-1.9,4.24-4.25,4.24h-10.86c-2.35,0-4.25-1.9-4.25-4.24v-5.06c0-2.34,1.9-4.25,4.25-4.25h10.86c2.35,0,4.25,1.91,4.25,4.25v5.06Z"/>
    </g>
  </g>
</svg>